# xmcd
# 
# Track frame offsets:
#     182
#     25260
#     46852
#     75280
#     96857
#     115900
#     127835
#     148497
#     168045
# 
# Disc length: 2500
# 
# Revision: 64
# Processed by: cddbd v1.5.2PL0 Copyright (c) Steve Scherf et al.
# Submitted via: fre:ac v1.0.17
# 
DISCID=6809c209
DTITLE=Led Zeppelin - Led Zeppelin II
DYEAR=1969
DGENRE=Hard Rock
TTITLE0=Whole Lotta Love
TTITLE1=What Is And What Should Never Be
TTITLE2=The Lemon Song
TTITLE3=Thank You
TTITLE4=Heartbreaker
TTITLE5=Living Loving Maid (She's Just A Woman)
TTITLE6=Ramble On
TTITLE7=Moby Dick
TTITLE8=Bring It On Home
EXTD=YEAR: 1969
EXTT0=
EXTT1=
EXTT2=
EXTT3=
EXTT4=
EXTT5=
EXTT6=
EXTT7=
EXTT8=
PLAYORDER=
